<svg width="500" height="500" viewBox="0 0 500 500" fill="none" xmlns="http://www.w3.org/2000/svg">
<g clip-path="url(#clip0_310_3664)">
<path d="M368.926 318.643H403.159C400.376 345.918 392.861 369.482 380.615 389.336C368.369 409.004 351.67 424.126 330.518 434.702C309.365 445.278 283.853 450.566 253.979 450.566C230.972 450.566 210.098 446.206 191.357 437.485C172.803 428.765 156.846 416.426 143.486 400.469C130.127 384.326 119.829 365.029 112.593 342.578C105.356 320.127 101.738 295.171 101.738 267.71V217.056C101.738 189.595 105.356 164.731 112.593 142.466C119.829 120.015 130.22 100.718 143.765 84.5752C157.31 68.4326 173.545 56.001 192.471 47.2803C211.396 38.5596 232.734 34.1992 256.484 34.1992C285.244 34.1992 310.107 39.4873 331.074 50.0635C352.041 60.4541 368.555 75.4834 380.615 95.1514C392.861 114.819 400.376 138.569 403.159 166.401H368.926C366.328 144.507 360.576 125.952 351.67 110.737C342.764 95.5225 330.425 83.9258 314.653 75.9473C299.067 67.7832 279.678 63.7012 256.484 63.7012C237.559 63.7012 220.674 67.3193 205.83 74.5557C190.986 81.792 178.369 92.1826 167.979 105.728C157.588 119.087 149.609 135.137 144.043 153.877C138.662 172.617 135.972 193.491 135.972 216.499V267.71C135.972 289.976 138.569 310.479 143.765 329.219C148.96 347.959 156.567 364.194 166.587 377.925C176.792 391.655 189.224 402.324 203.882 409.932C218.54 417.539 235.239 421.343 253.979 421.343C277.915 421.343 297.861 417.539 313.818 409.932C329.961 402.139 342.485 390.635 351.392 375.42C360.298 360.205 366.143 341.279 368.926 318.643Z" fill="black"/>
<g clip-path="url(#clip1_310_3664)">
<path d="M421.513 316.419H443.266C440.58 343.812 433.24 366.907 421.244 385.706C409.249 404.326 393.135 418.47 372.904 428.138C352.852 437.627 329.219 442.371 302.006 442.371C280.342 442.371 260.648 438.253 242.924 430.018C225.378 421.603 210.25 409.786 197.538 394.568C185.006 379.171 175.338 360.82 168.534 339.515C161.731 318.209 158.329 294.666 158.329 268.885V214.1C158.329 188.139 161.731 164.596 168.534 143.47C175.338 122.164 185.006 103.903 197.538 88.6846C210.25 73.2874 225.468 61.471 243.192 53.2354C261.096 44.8206 281.059 40.6133 303.08 40.6133C329.757 40.6133 353.121 45.3577 373.173 54.8467C393.225 64.3356 409.249 78.4795 421.244 97.2783C433.24 115.898 440.58 138.904 443.266 166.297H421.513C418.827 143.559 412.65 124.402 402.982 108.826C393.493 93.071 380.424 81.0755 363.773 72.8398C347.123 64.6042 326.892 60.4863 303.08 60.4863C284.281 60.4863 267.362 64.1566 252.323 71.4971C237.284 78.6585 224.394 89.0426 213.651 102.649C202.909 116.077 194.584 132.19 188.676 150.989C182.947 169.609 180.082 190.467 180.082 213.562V268.885C180.082 291.622 182.947 312.48 188.676 331.458C194.405 350.257 202.551 366.46 213.114 380.066C223.677 393.494 236.479 403.968 251.518 411.487C266.557 418.828 283.386 422.498 302.006 422.498C325.818 422.498 346.138 418.738 362.968 411.219C379.797 403.52 393.046 391.793 402.714 376.038C412.561 360.283 418.827 340.41 421.513 316.419Z" fill="black"/>
</g>
</g>
<defs>
<clipPath id="clip0_310_3664">
<rect width="500" height="500" fill="white"/>
</clipPath>
<clipPath id="clip1_310_3664">
<rect width="167" height="645" fill="white" transform="translate(121 -73)"/>
</clipPath>
</defs>
</svg>
