<svg width="303" height="417" viewBox="0 0 303 417" fill="none" xmlns="http://www.w3.org/2000/svg">
<path d="M267.926 284.643H302.159C299.376 311.918 291.861 335.482 279.615 355.336C267.369 375.004 250.67 390.126 229.518 400.702C208.365 411.278 182.853 416.566 152.979 416.566C129.972 416.566 109.098 412.206 90.3574 403.485C71.8027 394.765 55.8457 382.426 42.4863 366.469C29.127 350.326 18.8291 331.029 11.5928 308.578C4.35645 286.127 0.738281 261.171 0.738281 233.71V183.056C0.738281 155.595 4.35645 130.731 11.5928 108.466C18.8291 86.0146 29.2197 66.7178 42.7646 50.5752C56.3096 34.4326 72.5449 22.001 91.4707 13.2803C110.396 4.55957 131.734 0.199219 155.484 0.199219C184.244 0.199219 209.107 5.4873 230.074 16.0635C251.041 26.4541 267.555 41.4834 279.615 61.1514C291.861 80.8193 299.376 104.569 302.159 132.401H267.926C265.328 110.507 259.576 91.9521 250.67 76.7373C241.764 61.5225 229.425 49.9258 213.653 41.9473C198.067 33.7832 178.678 29.7012 155.484 29.7012C136.559 29.7012 119.674 33.3193 104.83 40.5557C89.9863 47.792 77.3691 58.1826 66.9785 71.7275C56.5879 85.0869 48.6094 101.137 43.043 119.877C37.6621 138.617 34.9717 159.491 34.9717 182.499V233.71C34.9717 255.976 37.5693 276.479 42.7646 295.219C47.96 313.959 55.5674 330.194 65.5869 343.925C75.792 357.655 88.2236 368.324 102.882 375.932C117.54 383.539 134.239 387.343 152.979 387.343C176.915 387.343 196.861 383.539 212.818 375.932C228.961 368.139 241.485 356.635 250.392 341.42C259.298 326.205 265.143 307.279 267.926 284.643Z" fill="white"/>
</svg>
